<mxfile host="app.diagrams.net" modified="2021-08-02T10:07:28.182Z" agent="5.0 (X11; Linux x86_64) AppleWebKit/537.36 (KHTML, like Gecko) Chrome/91.0.4472.114 Safari/537.36" etag="WwhHQUvufHIu70GgmXs4" version="14.9.3" type="github">
  <diagram id="Sx80eRwoRhXMcVrHA14e" name="Page-1">
    <mxGraphModel dx="868" dy="462" grid="1" gridSize="10" guides="1" tooltips="1" connect="1" arrows="1" fold="1" page="1" pageScale="1" pageWidth="827" pageHeight="1169" math="0" shadow="0">
      <root>
        <mxCell id="0" />
        <mxCell id="1" parent="0" />
        <mxCell id="ECMwFdhYDGbr-x0ZbSeB-1" value="Student" style="shape=umlActor;verticalLabelPosition=bottom;verticalAlign=top;html=1;outlineConnect=0;" vertex="1" parent="1">
          <mxGeometry x="90" y="200" width="30" height="60" as="geometry" />
        </mxCell>
        <mxCell id="ECMwFdhYDGbr-x0ZbSeB-2" value="Teacher" style="shape=umlActor;verticalLabelPosition=bottom;verticalAlign=top;html=1;outlineConnect=0;labelPadding=0;" vertex="1" parent="1">
          <mxGeometry x="90" y="380" width="30" height="60" as="geometry" />
        </mxCell>
        <mxCell id="ECMwFdhYDGbr-x0ZbSeB-4" value="Authentication" style="whiteSpace=wrap;html=1;aspect=fixed;verticalAlign=top;" vertex="1" parent="1">
          <mxGeometry x="200" y="120" width="400" height="400" as="geometry" />
        </mxCell>
        <mxCell id="ECMwFdhYDGbr-x0ZbSeB-6" value="" style="endArrow=none;html=1;" edge="1" parent="1">
          <mxGeometry width="50" height="50" relative="1" as="geometry">
            <mxPoint x="120" y="409.5" as="sourcePoint" />
            <mxPoint x="160" y="409.5" as="targetPoint" />
          </mxGeometry>
        </mxCell>
        <mxCell id="ECMwFdhYDGbr-x0ZbSeB-7" value="" style="endArrow=none;html=1;" edge="1" parent="1">
          <mxGeometry width="50" height="50" relative="1" as="geometry">
            <mxPoint x="120" y="229.5" as="sourcePoint" />
            <mxPoint x="160" y="229.5" as="targetPoint" />
            <Array as="points">
              <mxPoint x="140" y="229.5" />
            </Array>
          </mxGeometry>
        </mxCell>
        <mxCell id="ECMwFdhYDGbr-x0ZbSeB-8" value="" style="endArrow=none;html=1;" edge="1" parent="1">
          <mxGeometry width="50" height="50" relative="1" as="geometry">
            <mxPoint x="160" y="320" as="sourcePoint" />
            <mxPoint x="160" y="230" as="targetPoint" />
          </mxGeometry>
        </mxCell>
        <mxCell id="ECMwFdhYDGbr-x0ZbSeB-9" value="" style="endArrow=none;html=1;" edge="1" parent="1">
          <mxGeometry width="50" height="50" relative="1" as="geometry">
            <mxPoint x="160" y="410" as="sourcePoint" />
            <mxPoint x="160" y="320" as="targetPoint" />
          </mxGeometry>
        </mxCell>
        <mxCell id="ECMwFdhYDGbr-x0ZbSeB-11" value="" style="endArrow=none;html=1;" edge="1" parent="1">
          <mxGeometry width="50" height="50" relative="1" as="geometry">
            <mxPoint x="160" y="320" as="sourcePoint" />
            <mxPoint x="300" y="320" as="targetPoint" />
          </mxGeometry>
        </mxCell>
        <mxCell id="ECMwFdhYDGbr-x0ZbSeB-12" value="Text" style="text;html=1;align=center;verticalAlign=middle;resizable=0;points=[];autosize=1;strokeColor=none;" vertex="1" parent="1">
          <mxGeometry x="660" y="350" width="40" height="20" as="geometry" />
        </mxCell>
        <mxCell id="ECMwFdhYDGbr-x0ZbSeB-13" value="Text" style="text;html=1;align=center;verticalAlign=middle;resizable=0;points=[];autosize=1;strokeColor=none;" vertex="1" parent="1">
          <mxGeometry x="670" y="360" width="40" height="20" as="geometry" />
        </mxCell>
        <mxCell id="ECMwFdhYDGbr-x0ZbSeB-14" value="Text" style="text;html=1;align=center;verticalAlign=middle;resizable=0;points=[];autosize=1;strokeColor=none;" vertex="1" parent="1">
          <mxGeometry x="680" y="380" width="40" height="20" as="geometry" />
        </mxCell>
        <mxCell id="ECMwFdhYDGbr-x0ZbSeB-15" value="Text" style="text;html=1;align=center;verticalAlign=middle;resizable=0;points=[];autosize=1;strokeColor=none;" vertex="1" parent="1">
          <mxGeometry x="710" y="410" width="40" height="20" as="geometry" />
        </mxCell>
        <mxCell id="ECMwFdhYDGbr-x0ZbSeB-16" value="Text" style="text;html=1;align=center;verticalAlign=middle;resizable=0;points=[];autosize=1;strokeColor=none;" vertex="1" parent="1">
          <mxGeometry x="710" y="430" width="40" height="20" as="geometry" />
        </mxCell>
        <mxCell id="ECMwFdhYDGbr-x0ZbSeB-17" value="" style="shape=parallelogram;perimeter=parallelogramPerimeter;whiteSpace=wrap;html=1;fixedSize=1;verticalAlign=top;" vertex="1" parent="1">
          <mxGeometry x="700" y="440" width="120" height="60" as="geometry" />
        </mxCell>
        <mxCell id="ECMwFdhYDGbr-x0ZbSeB-18" value="" style="shape=cylinder;whiteSpace=wrap;html=1;boundedLbl=1;backgroundOutline=1;verticalAlign=top;" vertex="1" parent="1">
          <mxGeometry x="767" y="500" width="63" height="80" as="geometry" />
        </mxCell>
      </root>
    </mxGraphModel>
  </diagram>
</mxfile>
